# xmcd
#
# Track frame offsets:
#	150
#	18710
#	36667
#	55445
#	77830
#	97937
#	116727
#	135027
#	153270
#	171575
#	189697
#
# Disc length: 2800 seconds
#
# Revision: 9
# Processed by: cddbd v1.5.2PL0 Copyright (c) Steve Scherf et al.
# Submitted via: EasyCDDAExtractor 15.3.0.1
#
DISCID=940aee0b
DTITLE=Celia Cruz - Regalo Del Alma
DYEAR=2003
DGENRE=Latin
TTITLE0=Ella Tiene Fuego
TTITLE1=Jose Caridad
TTITLE2=Rie Y Llora
TTITLE3=Ay, Pena, Penita
TTITLE4=Diagnostico
TTITLE5=La Niña De La Trenza Negra
TTITLE6=Me Huele A Rumba
TTITLE7=No Estes Amargao
TTITLE8=Pa' La Cola
TTITLE9=Maria La Loca
TTITLE10=Yo Vivire (I Will Survive) (Bonus)
EXTD=
EXTT0=
EXTT1=
EXTT2=
EXTT3=
EXTT4=
EXTT5=
EXTT6=
EXTT7=
EXTT8=
EXTT9=
EXTT10=
PLAYORDER=
